#!OML:ASF F:\VICON\USERDATA\INSTALL\rory3\rory3.ASF
:FULLY-SPECIFIED
:DEGREES
24
root 3.77782 17.4926 4.32019 21.9441 -16.2508 0.632683
lowerback -13.9558 3.93779 2.73519
upperback -14.2525 4.87825 -0.0170711
thorax -7.25869 2.16578 -1.16514
lowerneck -2.24902 18.3125 14.2079
upperneck 8.92016 23.1893 6.01651
head 4.34582 12.1249 1.02032
rclavicle -1.05753e-013 -8.90555e-014
rhumerus -2.34711 -25.5717 20.0985
rradius 121.574
rwrist -64.5896
rhand -6.37691 -47.0015
rfingers 7.12502
rthumb 19.47 -76.0467
lclavicle -1.05753e-013 -8.90555e-014
lhumerus 28.8698 23.103 -24.2052
lradius 31.9433
lwrist 35.2282
lhand -24.1102 -18.4332
lfingers 7.12502
lthumb 2.37089 11.5334
rfemur -0.868958 3.55034 -7.56822
rtibia -4.13472e-014
rfoot -31.8107 -17.4757
rtoes 55.2625
lfemur -21.8677 -1.50036 -28.811
ltibia 15.6307
lfoot -13.7128 11.4478
ltoes 9.06664
25
root 3.77642 17.4933 4.31747 21.9375 -16.2964 0.627266
lowerback -13.9443 3.92763 2.67281
upperback -14.1929 4.87033 0.000807338
thorax -7.20273 2.16992 -1.11082
lowerneck -2.39839 18.3443 14.2288
upperneck 9.27099 23.1971 5.96507
head 4.06424 12.1477 0.966793
rclavicle 3.37934e-015 -1.59028e-014
rhumerus -2.28765 -25.77 19.9992
rradius 121.516
rwrist -64.5808
rhand -6.7048 -47.1503
rfingers 7.12502
rthumb 19.1547 -76.2271
lclavicle 3.37934e-015 -1.59028e-014
lhumerus 28.7811 23.2385 -24.2626
lradius 31.935
lwrist 35.1413
lhand -23.7382 -18.4432
lfingers 7.12502
lthumb 2.73023 11.5191
rfemur -0.898182 3.59408 -7.57171
rtibia 0
rfoot -31.9574 -17.3142
rtoes 55.3578
lfemur -21.8295 -1.48609 -28.8004
ltibia 15.5338
lfoot -13.5557 11.4771
ltoes 8.84633
26
root 3.77671 17.4936 4.31519 21.8863 -16.3347 0.638027
lowerback -13.9136 3.9284 2.61771
upperback -14.1056 4.87653 0.00239097
thorax -7.12294 2.18042 -1.07668
lowerneck -2.51571 18.3716 14.0278
upperneck 8.68875 23.2498 5.94854
head 4.29594 12.1359 1.03409
rclavicle 1.96797e-014 1.66979e-014
rhumerus -2.30421 -25.9842 19.9592
rradius 121.48
rwrist -64.5717
rhand -6.8816 -47.1718
rfingers 7.12502
rthumb 18.9847 -76.2653
lclavicle 1.96797e-014 1.66979e-014
lhumerus 28.7935 23.5743 -24.1365
lradius 31.8706
lwrist 34.6857
lhand -23.3542 -18.5764
lfingers 7.12502
lthumb 3.10104 11.3808
rfemur -0.878767 3.64437 -7.59392
rtibia 1.90833e-014
rfoot -31.856 -17.4348
rtoes 55.3239
lfemur -21.7335 -1.50369 -28.812
ltibia 15.4453
lfoot -13.5955 11.5538
ltoes 8.71427
27
root 3.77872 17.4935 4.31101 21.8601 -16.3331 0.713749
lowerback -13.9171 3.91423 2.54255
upperback -14.0429 4.86226 -0.0288061
thorax -7.05212 2.18008 -1.06657
lowerneck -2.37091 18.3417 14.1207
upperneck 8.32022 23.2711 5.65377
head 4.18727 12.1184 0.894861
rclavicle 3.06128e-014 3.33958e-014
rhumerus -2.40781 -26.0806 20.0756
rradius 121.503
rwrist -64.5551
rhand -6.91918 -47.1723
rfingers 7.12502
rthumb 18.9485 -76.2693
lclavicle 3.06128e-014 3.33958e-014
lhumerus 28.9108 23.9845 -23.8872
lradius 31.7582
lwrist 34.1853
lhand -23.258 -18.7132
lfingers 7.12502
lthumb 3.1939 11.2426
rfemur -0.870839 3.61976 -7.67589
rtibia 3.18055e-015
rfoot -31.5765 -17.7932
rtoes 55.146
lfemur -21.7073 -1.58362 -28.8789
ltibia 15.3883
lfoot -13.6025 11.6115
ltoes 9.45943
28
root 3.78027 17.4931 4.30893 21.8333 -16.3135 0.744853
lowerback -13.9179 3.90452 2.52872
upperback -14.0214 4.84982 -0.0443554
thorax -7.02701 2.17485 -1.07542
lowerneck -2.52969 18.3325 14.132
upperneck 8.42742 23.2259 5.63615
head 4.25993 12.1019 0.911909
rclavicle 1.19271e-014 5.56597e-015
rhumerus -2.48224 -26.0336 20.2318
rradius 121.552
rwrist -64.5751
rhand -7.00612 -47.2749
rfingers 7.12502
rthumb 18.8649 -76.3801
lclavicle 1.19271e-014 5.56597e-015
lhumerus 29.1242 24.3465 -23.5435
lradius 31.6189
lwrist 33.7779
lhand -23.0592 -18.7812
lfingers 7.12502
lthumb 3.38588 11.1717
rfemur -0.845606 3.60178 -7.69848
rtibia -1.27222e-014
rfoot -31.6968 -17.6574
rtoes 55.1735
lfemur -21.6688 -1.61113 -28.9116
ltibia 15.3495
lfoot -13.4307 11.6313
ltoes 10.8283
29
root 3.78111 17.4931 4.30865 21.8095 -16.2818 0.699101
lowerback -13.8886 3.91932 2.59493
upperback -14.038 4.86563 -0.0446132
thorax -7.05643 2.17651 -1.11348
lowerneck -2.58216 18.316 14.2642
upperneck 8.95344 23.1699 5.60743
head 4.03639 12.1049 0.8646
rclavicle 4.77083e-015 5.56597e-015
rhumerus -2.50818 -25.973 20.3149
rradius 121.573
rwrist -64.5995
rhand -6.97755 -47.318
rfingers 7.12502
rthumb 18.8924 -76.4205
lclavicle 4.77083e-015 5.56597e-015
lhumerus 29.3569 24.5464 -23.2162
lradius 31.527
lwrist 33.3804
lhand -23.1569 -18.8585
lfingers 7.12502
lthumb 3.29159 11.0958
rfemur -0.818325 3.60836 -7.63023
rtibia 9.54166e-015
rfoot -31.9882 -17.4425
rtoes 55.2218
lfemur -21.6337 -1.62104 -28.8593
ltibia 15.334
lfoot -13.1977 11.7261
ltoes 9.63541
30
root 3.78163 17.4939 4.30742 21.8402 -16.2497 0.670206
lowerback -13.9017 3.92776 2.61357
upperback -14.0529 4.87505 -0.0485502
thorax -7.06444 2.1793 -1.12689
lowerneck -2.69506 18.3107 14.1807
upperneck 9.07291 23.1303 5.75502
head 4.06398 12.0959 0.926792
rclavicle -1.37161e-014 -1.19271e-014
rhumerus -2.55495 -25.9379 20.3574
rradius 121.599
rwrist -64.6142
rhand -7.03982 -47.2184
rfingers 7.12502
rthumb 18.8325 -76.3267
lclavicle -1.37161e-014 -1.19271e-014
lhumerus 29.3988 24.4659 -23.2246
lradius 31.5324
lwrist 33.3692
lhand -23.621 -18.8478
lfingers 7.12502
lthumb 2.84335 11.113
rfemur -0.843381 3.58102 -7.58682
rtibia -1.27222e-014
rfoot -31.9468 -17.6264
rtoes 55.1395
lfemur -21.689 -1.58037 -28.8287
ltibia 15.3458
lfoot -13.1392 11.7194
ltoes 7.06824
31
root 3.78227 17.494 4.30737 21.8473 -16.2561 0.64929
lowerback -13.9201 3.93064 2.61596
upperback -14.0376 4.87792 -0.0409507
thorax -7.03744 2.1816 -1.11803
lowerneck -2.9689 18.3329 13.9652
upperneck 9.24701 23.0923 6.05652
head 4.10101 12.094 1.06089
rclavicle 5.75482e-014 3.33958e-014
rhumerus -2.53954 -25.9176 20.287
rradius 121.628
rwrist -64.605
rhand -7.39137 -47.1222
rfingers 7.12502
rthumb 18.4944 -76.263
lclavicle 5.75482e-014 3.33958e-014
lhumerus 29.3002 24.2807 -23.4234
lradius 31.5972
lwrist 33.665
lhand -23.9199 -18.8102
lfingers 7.12502
lthumb 2.55473 11.1543
rfemur -0.852063 3.592 -7.57485
rtibia 2.22639e-014
rfoot -31.8429 -17.7325
rtoes 55.1852
lfemur -21.6851 -1.50359 -28.8337
ltibia 15.3566
lfoot -13.3756 11.5757
ltoes 7.4481
32
root 3.78239 17.4942 4.3071 21.8075 -16.3019 0.617522
lowerback -13.8765 3.94634 2.63818
upperback -14.0666 4.89913 -0.0310032
thorax -7.09275 2.18947 -1.1222
lowerneck -2.95483 18.3117 13.9155
upperneck 9.33451 23.0553 6.17931
head 4.10589 12.0844 1.09905
rclavicle 2.8625e-014 1.11319e-014
rhumerus -2.43744 -25.8426 20.176
rradius 121.628
rwrist -64.5963
rhand -7.79569 -47.1079
rfingers 7.12502
rthumb 18.1054 -76.2853
lclavicle 2.8625e-014 1.11319e-014
lhumerus 29.2206 24.0134 -23.6195
lradius 31.6856
lwrist 33.9709
lhand -24.1382 -18.8176
lfingers 7.12502
lthumb 2.34389 11.1492
rfemur -0.849767 3.66267 -7.55674
rtibia 2.54444e-014
rfoot -31.8609 -17.8206
rtoes 55.1986
lfemur -21.6274 -1.53209 -28.7999
ltibia 15.3581
lfoot -13.6851 11.5707
ltoes 9.90424
33
root 3.78136 17.4956 4.30471 21.8084 -16.3237 0.630806
lowerback -13.8697 3.94089 2.58172
upperback -14.1029 4.89767 -0.0160554
thorax -7.14373 2.19315 -1.07758
lowerneck -2.81043 18.2718 13.9255
upperneck 9.31627 23.0298 6.16065
head 4.08056 12.0699 1.07542
rclavicle -2.60408e-014 -3.02153e-014
rhumerus -2.31796 -25.7628 20.0698
rradius 121.608
rwrist -64.5743
rhand -7.75899 -47.1518
rfingers 7.12502
rthumb 18.1407 -76.3259
lclavicle -2.60408e-014 -3.02153e-014
lhumerus 29.0324 23.622 -23.9444
lradius 31.8246
lwrist 34.4612
lhand -24.2639 -18.7459
lfingers 7.12502
lthumb 2.22252 11.2223
rfemur -0.875118 3.67539 -7.5645
rtibia -3.18055e-015
rfoot -31.9985 -17.7036
rtoes 55.2129
lfemur -21.6452 -1.54083 -28.8013
ltibia 15.3571
lfoot -13.7874 11.5827
ltoes 11.0477
